<?xml version="1.0" encoding="UTF-8" standalone="no"?>
<svg width="101px" height="68px" viewBox="0 0 101 68" version="1.1" xmlns="http://www.w3.org/2000/svg" xmlns:xlink="http://www.w3.org/1999/xlink" xmlns:sketch="http://www.bohemiancoding.com/sketch/ns">
    <!-- Generator: Sketch 3.3.3 (12072) - http://www.bohemiancoding.com/sketch -->
    <title>Oval 54 + Group + Path 43@1x</title>
    <desc>Created with Sketch.</desc>
    <defs>
        <rect id="path-1" x="0" y="0" width="65" height="10" rx="2"></rect>
    </defs>
    <g id="design" stroke="none" stroke-width="1" fill="none" fill-rule="evenodd" sketch:type="MSPage">
        <g id="coral-test-startpage" sketch:type="MSArtboardGroup" transform="translate(-47.000000, -438.000000)">
            <g id="Group" sketch:type="MSLayerGroup" transform="translate(12.000000, 397.000000)">
                <g id="Oval-54-+-Group-+-Path-43" transform="translate(34.000000, 34.000000)">
                    <ellipse id="Oval-54" fill="#E6E6E6" sketch:type="MSShapeGroup" cx="49" cy="72" rx="39" ry="3"></ellipse>
                    <g id="Group" transform="translate(54.000000, 37.000000) rotate(-15.000000) translate(-54.000000, -37.000000) translate(5.000000, 12.000000)">
                        <ellipse id="Oval-48" fill="#FF758A" sketch:type="MSShapeGroup" cx="71" cy="25" rx="22" ry="21"></ellipse>
                        <path d="M92.6584137,46 C90.8244808,35.7016806 81.8253177,27.8829832 71,27.8829832 C61.0180827,27.8829832 52.5888534,34.5308305 49.8981846,43.6406526 C53.6954856,36.3774936 61.6063375,31.3829832 70.75,31.3829832 C80.8535779,31.3829832 89.4519138,37.4812011 92.6584137,46 Z" id="Oval-48" fill="#E36174" sketch:type="MSShapeGroup" transform="translate(71.278299, 36.941492) scale(1, -1) translate(-71.278299, -36.941492) "></path>
                        <rect id="Rectangle-365" fill="#FF758A" sketch:type="MSShapeGroup" transform="translate(89.500000, 25.500000) rotate(-90.000000) translate(-89.500000, -25.500000) " x="85" y="17" width="9" height="17" rx="40"></rect>
                        <rect id="Rectangle-348" fill="#2A3974" sketch:type="MSShapeGroup" x="60" y="0" width="13" height="50" rx="2"></rect>
                        <rect id="Rectangle-348" fill="#4B61B0" sketch:type="MSShapeGroup" x="0" y="3" width="63" height="44" rx="2"></rect>
                        <rect id="Rectangle-350" fill="#4B61B0" sketch:type="MSShapeGroup" x="57" y="3" width="6" height="7"></rect>
                        <g id="Rectangle-351" transform="translate(0.000000, 38.000000)">
                            <g>
                                <mask id="mask-2" sketch:name="Mask" fill="white">
                                    <use xlink:href="#path-1"></use>
                                </mask>
                                <use id="Mask" sketch:type="MSShapeGroup" xlink:href="#path-1"></use>
                                <rect fill="#2A3974" sketch:type="MSShapeGroup" mask="url(#mask-2)" x="0" y="7" width="65" height="3"></rect>
                            </g>
                        </g>
                        <g id="Group-+-Group-+-Group" transform="translate(7.000000, 6.000000)" fill="#FFFFFF" sketch:type="MSShapeGroup">
                            <g id="Group">
                                <rect id="Rectangle-353" x="0" y="0" width="2" height="7" rx="3"></rect>
                                <rect id="Rectangle-353" x="5" y="0" width="2" height="2" rx="3"></rect>
                                <rect id="Rectangle-353" x="10" y="0" width="2" height="2" rx="3"></rect>
                                <rect id="Rectangle-353" x="15" y="0" width="2" height="7" rx="3"></rect>
                            </g>
                            <g id="Group" transform="translate(20.000000, 0.000000)">
                                <rect id="Rectangle-353" x="0" y="0" width="2" height="2" rx="3"></rect>
                                <rect id="Rectangle-353" x="5" y="0" width="2" height="2" rx="3"></rect>
                                <rect id="Rectangle-353" x="10" y="0" width="2" height="7" rx="3"></rect>
                            </g>
                            <g id="Group" transform="translate(35.000000, 0.000000)">
                                <rect id="Rectangle-353" x="0" y="0" width="2" height="2" rx="3"></rect>
                                <rect id="Rectangle-353" x="5" y="0" width="2" height="2" rx="3"></rect>
                                <rect id="Rectangle-353" x="10" y="0" width="2" height="7" rx="3"></rect>
                            </g>
                        </g>
                    </g>
                    <path d="M6,47.0406066 L75.5439996,47.0406066 L76.6632563,53.2015596 L12.2467637,70.4144947 L6,47.0406066 Z" id="Path-43" opacity="0.4" fill="#2A3974" sketch:type="MSShapeGroup"></path>
                </g>
            </g>
        </g>
    </g>
</svg>