<?xml version="1.0" encoding="UTF-8" standalone="no"?>
<svg width="94px" height="74px" viewBox="0 0 94 74" version="1.1" xmlns="http://www.w3.org/2000/svg" xmlns:xlink="http://www.w3.org/1999/xlink" xmlns:sketch="http://www.bohemiancoding.com/sketch/ns">
    <!-- Generator: Sketch 3.3.3 (12072) - http://www.bohemiancoding.com/sketch -->
    <title>Group</title>
    <desc>Created with Sketch.</desc>
    <defs>
        <path id="path-1" d="M0,0 L53,0 L65,54 L12,54 L0,0 Z"></path>
    </defs>
    <g id="design" stroke="none" stroke-width="1" fill="none" fill-rule="evenodd" sketch:type="MSPage">
        <g id="coral-test-startpage" sketch:type="MSArtboardGroup" transform="translate(-229.000000, -611.000000)">
            <g id="Group" sketch:type="MSLayerGroup" transform="translate(193.000000, 575.000000)">
                <g transform="translate(34.000000, 36.000000)">
                    <path d="M46,9 L84,9 L96,63 L58,63 L46,9 Z" id="Rectangle-397" fill="#2A3974" sketch:type="MSShapeGroup"></path>
                    <polygon id="Star-1" fill="#4B61B0" sketch:type="MSShapeGroup" points="72 33.0047089 69.648859 34.236068 70.0934085 31.6194891 68.1957739 29.763932 70.8216617 29.3781564 72 27 73.1783383 29.3781564 75.8042261 29.763932 73.9065915 31.6194891 74.351141 34.236068 "></polygon>
                    <polygon id="Star-1" fill="#4B61B0" sketch:type="MSShapeGroup" points="68 21.0047089 65.648859 22.236068 66.0934085 19.6194891 64.1957739 17.763932 66.8216617 17.3781564 68 15 69.1783383 17.3781564 71.8042261 17.763932 69.9065915 19.6194891 70.351141 22.236068 "></polygon>
                    <ellipse id="Oval-54" fill="#E6E6E6" sketch:type="MSShapeGroup" cx="27.5" cy="71" rx="16.5" ry="3"></ellipse>
                    <path d="M56.3500061,56.0050049 L69.9526052,56.0050049 L57.999969,63 L56.3500061,56.0050049 Z" id="Rectangle-400" fill="#FF758A" sketch:type="MSShapeGroup"></path>
                    <path d="M0,2 L58,2 L70,56 L12,56 L0,2 Z" id="Mask" sketch:type="MSShapeGroup"></path>
                    <g transform="translate(5.000000, 2.000000)">
                        <mask id="mask-2" sketch:name="Mask" fill="white">
                            <use xlink:href="#path-1"></use>
                        </mask>
                        <use id="Mask" fill="#4B61B0" sketch:type="MSShapeGroup" xlink:href="#path-1"></use>
                        <g mask="url(#mask-2)" id="Star-1" fill="#FF758A" sketch:type="MSShapeGroup">
                            <g transform="translate(26.000000, 6.000000)">
                                <polygon points="21 6.0047089 18.648859 7.23606798 19.0934085 4.61948912 17.1957739 2.76393202 19.8216617 2.37815643 21 0 22.1783383 2.37815643 24.8042261 2.76393202 22.9065915 4.61948912 23.351141 7.23606798 "></polygon>
                                <polygon points="21 40.0047089 18.648859 41.236068 19.0934085 38.6194891 17.1957739 36.763932 19.8216617 36.3781564 21 34 22.1783383 36.3781564 24.8042261 36.763932 22.9065915 38.6194891 23.351141 41.236068 "></polygon>
                                <polygon points="4 23.0047089 1.64885899 24.236068 2.09340853 21.6194891 0.195773935 19.763932 2.82166167 19.3781564 4 17 5.17833833 19.3781564 7.80422607 19.763932 5.90659147 21.6194891 6.35114101 24.236068 "></polygon>
                                <polygon points="9 11.0047089 6.64885899 12.236068 7.09340853 9.61948912 5.19577393 7.76393202 7.82166167 7.37815643 9 5 10.1783383 7.37815643 12.8042261 7.76393202 10.9065915 9.61948912 11.351141 12.236068 "></polygon>
                                <polygon points="10 35.0047089 7.64885899 36.236068 8.09340853 33.6194891 6.19577393 31.763932 8.82166167 31.3781564 10 29 11.1783383 31.3781564 13.8042261 31.763932 11.9065915 33.6194891 12.351141 36.236068 "></polygon>
                                <polygon points="35 35.0047089 32.648859 36.236068 33.0934085 33.6194891 31.1957739 31.763932 33.8216617 31.3781564 35 29 36.1783383 31.3781564 38.8042261 31.763932 36.9065915 33.6194891 37.351141 36.236068 "></polygon>
                            </g>
                        </g>
                    </g>
                    <path d="M2.41068678,1.95778401 C2.18387073,0.876529758 2.88772964,0 4,0 L4,0 C5.1045695,0 6.18325232,0.873581727 6.41068678,1.95778401 L20.5085964,69.1638972 C20.7354125,70.2451515 20.0315536,71.1216812 18.9192832,71.1216812 L18.9192832,71.1216812 C17.8147137,71.1216812 16.7360309,70.2480995 16.5085964,69.1638972 L2.41068678,1.95778401 Z" id="Rectangle-397" fill="#2A3974" sketch:type="MSShapeGroup"></path>
                </g>
            </g>
        </g>
    </g>
</svg>