<?xml version="1.0" encoding="UTF-8" standalone="no"?>
<svg width="98px" height="69px" viewBox="0 0 98 69" version="1.1" xmlns="http://www.w3.org/2000/svg" xmlns:xlink="http://www.w3.org/1999/xlink" xmlns:sketch="http://www.bohemiancoding.com/sketch/ns">
    <!-- Generator: Sketch 3.3.3 (12072) - http://www.bohemiancoding.com/sketch -->
    <title>Group</title>
    <desc>Created with Sketch.</desc>
    <defs>
        <path id="path-1" d="M40,43 C61.5391052,43 79,33.3741221 79,21 C79,9.62587788 61.5391052,0 40,0 C18.4608948,0 1,9.62587788 1,21 C1,33.3741221 18.4608948,43 40,43 Z"></path>
        <rect id="path-3" x="0" y="0" width="78" height="18"></rect>
        <rect id="path-5" x="0" y="0" width="78" height="18"></rect>
        <rect id="path-7" x="0" y="0" width="78" height="18"></rect>
        <filter x="-50%" y="-50%" width="200%" height="200%" filterUnits="objectBoundingBox" id="filter-9">
            <feOffset dx="0" dy="2" in="SourceAlpha" result="shadowOffsetOuter1"></feOffset>
            <feGaussianBlur stdDeviation="0" in="shadowOffsetOuter1" result="shadowBlurOuter1"></feGaussianBlur>
            <feColorMatrix values="0 0 0 0 0.164705882   0 0 0 0 0.223529412   0 0 0 0 0.454901961  0 0 0 0.7 0" in="shadowBlurOuter1" type="matrix" result="shadowMatrixOuter1"></feColorMatrix>
            <feMerge>
                <feMergeNode in="shadowMatrixOuter1"></feMergeNode>
                <feMergeNode in="SourceGraphic"></feMergeNode>
            </feMerge>
        </filter>
    </defs>
    <g id="design" stroke="none" stroke-width="1" fill="none" fill-rule="evenodd" sketch:type="MSPage">
        <g id="coral-test-startpage" sketch:type="MSArtboardGroup" transform="translate(-228.000000, -259.000000)">
            <g id="Group" sketch:type="MSLayerGroup" transform="translate(193.000000, 219.000000)">
                <g transform="translate(35.000000, 40.000000)">
                    <g>
                        <path d="M48.5,69.0140024 C74.7793612,68.9413237 96,63.1457314 96,56.0070012 C96,48.868271 74.7793612,43.0726787 48.5,43 L48.5,69.0140024 Z" id="Oval-38" fill="#E6E6E6" sketch:type="MSShapeGroup"></path>
                        <g id="Rectangle-237-+-Rectangle-237" transform="translate(9.000000, 26.000000)">
                            <mask id="mask-2" sketch:name="Mask" fill="white">
                                <use xlink:href="#path-1"></use>
                            </mask>
                            <use id="Mask" fill="#2A3974" sketch:type="MSShapeGroup" xlink:href="#path-1"></use>
                            <g mask="url(#mask-2)" id="Rectangle-237" fill="#FFFFFF" sketch:type="MSShapeGroup">
                                <g transform="translate(57.000000, 23.000000)">
                                    <rect x="8" y="0" width="2" height="21"></rect>
                                    <rect x="0" y="0" width="6" height="21"></rect>
                                </g>
                            </g>
                        </g>
                        <path d="M49,0.00852205182 C31.3168436,0.314789914 29.7620477,8.8597746 2,23 C-1.17006149,24.6146282 0.791082855,27.5483806 2,29 L15,46 L49,46 L49,0.00852205182 Z" id="Imported-Layers" fill="#4B61B0" sketch:type="MSShapeGroup"></path>
                        <path d="M97.2729582,0.00719660345 C79.4617519,0.289109667 77.9395648,8.83851633 50.0531094,23 C46.8736222,24.6146282 48.8405977,27.5483806 50.0531094,29 L63.091763,46 L97.2729582,46 L97.2729582,0.00719660345 Z" id="Imported-Layers" fill="#4B61B0" sketch:type="MSShapeGroup" transform="translate(72.801657, 23.003598) scale(-1, 1) translate(-72.801657, -23.003598) "></path>
                        <g id="Oval-18-+-Oval-18-+-Oval-18" transform="translate(10.000000, 28.000000)">
                            <g id="Oval-18-+-Oval-18" transform="translate(0.000000, 10.000000)">
                                <g id="Oval-18">
                                    <mask id="mask-4" sketch:name="Mask" fill="white">
                                        <use xlink:href="#path-3"></use>
                                    </mask>
                                    <use id="Mask" sketch:type="MSShapeGroup" xlink:href="#path-3"></use>
                                    <path d="M86.2385064,-3 C87.3866333,-1.72656373 88,-0.385209333 88,1 C88,9.28427125 66.0619527,16 39,16 C11.9380473,16 -10,9.28427125 -10,1 C-10,-0.385209333 -9.38663334,-1.72656373 -8.23850644,-3 C-2.52023817,3.34237401 16.4630644,8 39,8 C61.5369356,8 80.5202382,3.34237401 86.2385064,-3 Z" fill="#FF758A" sketch:type="MSShapeGroup" mask="url(#mask-4)"></path>
                                </g>
                            </g>
                            <g id="Oval-18" transform="translate(0.000000, 2.000000)">
                                <mask id="mask-6" sketch:name="Mask" fill="white">
                                    <use xlink:href="#path-5"></use>
                                </mask>
                                <use id="Mask" sketch:type="MSShapeGroup" xlink:href="#path-5"></use>
                                <path d="M87.8928385,1 C87.9639054,1.33052361 88,1.66397145 88,2 C88,10.2842712 66.0619527,17 39,17 C11.9380473,17 -10,10.2842712 -10,2 C-10,1.66397145 -9.96390544,1.33052361 -9.89283845,1 C-8.21185724,8.81803182 13.0357405,15 39,15 C64.9642595,15 86.2118572,8.81803182 87.8928385,1 Z" fill="#2A3974" sketch:type="MSShapeGroup" mask="url(#mask-6)"></path>
                            </g>
                            <g id="Oval-18">
                                <mask id="mask-8" sketch:name="Mask" fill="white">
                                    <use xlink:href="#path-7"></use>
                                </mask>
                                <use id="Mask" sketch:type="MSShapeGroup" xlink:href="#path-7"></use>
                                <path d="M87.5682403,-1.52100554e-13 C87.8530061,0.654274741 88,1.32188243 88,2 C88,10.2842712 66.0619527,17 39,17 C11.9380473,17 -10,10.2842712 -10,2 C-10,1.32188243 -9.85300609,0.654274741 -9.56824031,-3.89610566e-12 C-6.37414476,7.33871892 14.1532313,13 39,13 C63.8467687,13 84.3741448,7.33871892 87.5682403,-1.90514271e-13 Z" fill="#3F5198" sketch:type="MSShapeGroup" mask="url(#mask-8)"></path>
                            </g>
                        </g>
                        <g id="Imported-Layers-+-Rectangle-329-+-Rectangle-329" transform="translate(40.000000, 14.000000)" filter="url(#filter-9)" fill="#FFFFFF" sketch:type="MSShapeGroup">
                            <path d="M0,0 L0,11 C0,16.8420877 9,21 9,21 C9,21 18,16.8420877 18,11 L18,0 L9,0 L0,0 Z" id="Imported-Layers"></path>
                        </g>
                        <path d="M54,18 L49,21.8241512 L44,18" id="Imported-Layers" stroke="#2A3974" stroke-width="2" stroke-linecap="round" sketch:type="MSShapeGroup"></path>
                        <path d="M54,23 L49,26.8241512 L44,23" id="Imported-Layers" stroke="#2A3974" stroke-width="2" stroke-linecap="round" sketch:type="MSShapeGroup"></path>
                    </g>
                </g>
            </g>
        </g>
    </g>
</svg>