<?xml version="1.0" encoding="UTF-8" standalone="no"?>
<svg width="97px" height="66px" viewBox="0 0 97 66" version="1.1" xmlns="http://www.w3.org/2000/svg" xmlns:xlink="http://www.w3.org/1999/xlink" xmlns:sketch="http://www.bohemiancoding.com/sketch/ns">
    <!-- Generator: Sketch 3.3.3 (12072) - http://www.bohemiancoding.com/sketch -->
    <title>Rectangle 170 + Group + Oval 12</title>
    <desc>Created with Sketch.</desc>
    <defs></defs>
    <g id="design" stroke="none" stroke-width="1" fill="none" fill-rule="evenodd" sketch:type="MSPage">
        <g id="coral-test-startpage" sketch:type="MSArtboardGroup" transform="translate(-51.000000, -257.000000)">
            <g id="Group" sketch:type="MSLayerGroup" transform="translate(12.000000, 219.000000)">
                <g id="Rectangle-170-+-Group-+-Oval-12" transform="translate(38.000000, 40.000000)" sketch:type="MSShapeGroup">
                    <path d="M9.71870498,55.486303 C10.4564613,54.6654405 11.9529202,54 13.0551099,54 L96.9324653,54 C98.0373545,54 98.3293883,54.671656 97.5972182,55.486303 L91.281295,62.513697 C90.5435387,63.3345595 89.0470798,64 87.9448901,64 L4.06753466,64 C2.96264547,64 2.67061167,63.328344 3.40278184,62.513697 L9.71870498,55.486303 Z" id="Rectangle-170" fill="#E6E6E6"></path>
                    <g id="Group" transform="translate(0.000000, 6.000000)">
                        <rect id="Rectangle-26" fill="#4B61B0" x="2" y="18" width="88" height="40" rx="2"></rect>
                        <rect id="Rectangle-29" fill="#293974" x="2" y="18" width="88" height="3"></rect>
                        <rect id="Rectangle-26" fill="#4B61B0" x="1" y="0" width="90" height="19" rx="2"></rect>
                        <rect id="Rectangle-39" fill="#FF758A" x="72" y="13" width="8" height="21" rx="11"></rect>
                        <g transform="translate(71.000000, 0.000000)">
                            <rect id="Rectangle-39" fill="#FF758A" x="1" y="0" width="8" height="19"></rect>
                            <rect id="Rectangle-43" fill="#FFFFFF" x="0" y="21" width="10" height="5"></rect>
                        </g>
                        <rect id="Rectangle-364" fill="#E36174" x="72" y="19" width="8" height="2"></rect>
                        <g transform="translate(10.000000, 0.000000)">
                            <rect id="Rectangle-39" fill="#FF758A" x="2" y="13" width="8" height="21" rx="11"></rect>
                            <rect id="Rectangle-39" fill="#FF758A" x="2" y="0" width="8" height="19"></rect>
                            <rect id="Rectangle-43" fill="#FFFFFF" x="1" y="21" width="10" height="5"></rect>
                        </g>
                    </g>
                    <rect id="Rectangle-364" fill="#E36174" x="12" y="25" width="8" height="2"></rect>
                    <path d="M55,8 C55,3.02943725 50.9705627,0 46,0 C41.0294373,0 37,3.02943725 37,8" id="Oval-12" stroke="#FF758A" stroke-width="3" stroke-linecap="round"></path>
                </g>
            </g>
        </g>
    </g>
</svg>