<?xml version="1.0" encoding="utf-8"?>
<svg version="1.1" id="Layer_1" xmlns="http://www.w3.org/2000/svg" xmlns:xlink="http://www.w3.org/1999/xlink" x="0px" y="0px"
	 viewBox="0 0 109.5 95.7" style="enable-background:new 0 0 109.5 95.7;" xml:space="preserve">
<style type="text/css">
	.st0{fill:none;stroke:#0D3676;stroke-width:2;stroke-linecap:round;stroke-linejoin:round;stroke-miterlimit:10;}
	.st1{fill:none;stroke:#0D3676;stroke-width:2.0343;stroke-linecap:round;stroke-linejoin:round;stroke-miterlimit:10;}
	.st2{fill:none;stroke:#0D3676;stroke-width:1.3545;stroke-linecap:round;stroke-linejoin:round;stroke-miterlimit:10;}
	.st3{fill:#0D3676;}
</style>
<path class="st0" d="M18.4,48c-0.7-1.4-2.4-2-3.9-1.8s-2.9,1.1-4.1,2.1c-0.7,0.6-1.4,1.3-1.5,2.2c-0.2,1.7,2,2.6,3.6,3.3
	c1.8,0.8,3.5,2,4.8,3.6c0.9,1.1,1.7,2.6,1.3,4c-0.5,1.8-2.7,2.6-4.5,2.7c-2.2,0.1-4.3-0.4-6.3-1.3"/>
<path class="st0" d="M20.3,54.7c3-0.1,6-0.3,9-0.4"/>
<path class="st0" d="M25.4,51c-0.6,3.1-0.6,6.2-0.1,9.3c0.2,1.3,0.6,2.6,1.5,3.5c0.9,0.9,2.6,1.2,3.5,0.2"/>
<path class="st0" d="M39.1,53.5c-1.6-0.8-3.8-0.1-4.9,1.4c-1.1,1.4-1.3,3.4-1,5.2c0.1,0.5,0.3,1.1,0.7,1.5c1,1.1,2.9,0.7,3.9-0.4
	c1-1.1,1.2-2.6,1.4-4.1"/>
<path class="st0" d="M39.5,53.9c-0.2,1.6-0.4,3.3,0.1,4.9c0.5,1.6,1.8,3,3.4,3.1"/>
<path class="st0" d="M44.7,53.5c1.1,2.7,1.9,5.5,2.4,8.4c-0.4-1.4-0.7-2.8-0.7-4.3c0.1-1.4,0.6-2.9,1.8-3.8"/>
<path class="st0" d="M51.7,54.3c1.9-0.6,3.8-0.8,5.7-0.7"/>
<path class="st0" d="M53.6,50.3c-0.1,1.5-0.2,2.9-0.4,4.4c-0.1,1.5-0.2,3,0.1,4.5s1.3,2.9,2.7,3.4c1.4,0.5,3.3-0.2,3.7-1.6"/>
<path class="st0" d="M70.7,42.9c1.2,6.6,2.4,13.1,3.6,19.7c0,0.2,0.1,0.4,0.2,0.4c0.2,0.1,0.3-0.2,0.1-0.3"/>
<path class="st0" d="M73.2,56.3c0.8-1.4,1.8-2.7,3.1-3.8c0.3-0.3,0.7-0.5,1.2-0.5c0.8,0.1,1.1,0.9,1.3,1.7c0.8,2.7,1.5,5.4,2.3,8.1"
	/>
<path class="st0" d="M84.4,58c1.9-0.4,3.7-1.6,4.9-3.1c0.2-0.2,0.3-0.5,0.3-0.8c0-0.4-0.5-0.7-0.8-0.9c-1.2-0.6-2.7-1.1-3.8-0.3
	c-0.5,0.3-0.8,0.8-1,1.4c-0.9,2.3,0.2,5.2,2.4,6.5c2.2,1.3,5.1,0.9,7.1-0.7"/>
<path class="st0" d="M94.6,52.3c1.4,2.9,2.5,5.9,3.1,9.1c-0.5-1.5-0.9-3.1-1.3-4.6c-0.1-0.5-0.2-1-0.1-1.5c0.3-1.4,2.2-1.6,3.6-1.6"
	/>
<path class="st0" d="M4.7,80.9c1.1-1.7,3.3-2.3,5.3-2.7c31.3-6.6,63.6-6,95.5-4.4C83.6,74.6,61.8,77,40.2,81
	c10.2-0.6,20.4,0,30.5,1.9C64.3,84.1,58,86,52,88.5c2.4,0.3,4.9,0.6,7.3,0.8"/>
<path class="st0" d="M57.6,34.9c-3.2-9.2-3.1-19.4,0.2-28.5"/>
<path class="st0" d="M50.3,15.5C52.5,10.9,55,7.5,58,4.6c0.9,3.7,2.4,7.2,4.4,10.4"/>
</svg>
